<svg width="86" height="118" viewBox="0 0 86 118" fill="none" xmlns="http://www.w3.org/2000/svg">
<g filter="url(#filter0_d_177_8774)">
<path d="M35.276 113.874C27.3655 113.874 20.704 112.416 15.2915 109.502C9.98313 106.588 6.13195 102.476 3.73798 97.1678C1.44809 91.7553 0.875615 85.354 2.02056 77.9639H22.6296C22.3173 81.9192 22.6296 85.2499 23.5663 87.9562C24.6072 90.6624 26.3246 92.7441 28.7186 94.2013C31.2166 95.5544 34.3392 96.231 38.0863 96.231C41.9375 96.231 45.3723 95.4503 48.3908 93.8891C51.4093 92.2237 53.8033 90.0379 55.5727 87.3316C57.3422 84.6254 58.279 81.5028 58.3831 77.9639C58.4871 74.8413 57.8106 72.1872 56.3534 70.0013C54.8962 67.8155 52.7624 66.2022 49.9521 65.1614C47.2459 64.0164 43.9672 63.4439 40.116 63.4439H31.9973L34.9637 46.1136H43.2386C49.1715 46.1136 54.0635 44.6564 57.9147 41.742C61.7658 38.8276 63.7955 34.8724 64.0037 29.8762C64.2119 26.4414 63.2231 23.7352 61.0372 21.7576C58.8514 19.6758 55.6768 18.635 51.5134 18.635C46.5173 18.635 42.3538 20.0922 39.0231 23.0066C35.7964 25.921 33.6106 29.5119 32.4657 33.7795H12.0128C13.5741 26.9098 16.2803 21.0289 20.1315 16.1369C24.0868 11.1408 28.9788 7.34165 34.8076 4.73951C40.7405 2.13736 47.2979 0.836293 54.4798 0.836293C61.4536 0.836293 67.2304 1.98124 71.8101 4.27112C76.494 6.56101 79.9288 9.63154 82.1146 13.4827C84.4045 17.3339 85.4454 21.7055 85.2372 26.5975C85.029 30.9692 83.9361 35.0285 81.9585 38.7756C80.085 42.5227 77.4828 45.7493 74.1521 48.4556C70.9254 51.1618 67.1783 53.1394 62.9108 54.3885C66.4497 55.1171 69.4162 56.5222 71.8101 58.6039C74.3082 60.5816 76.1817 63.1317 77.4308 66.2543C78.6798 69.3768 79.2002 72.9158 78.9921 76.871C78.7839 83.8448 76.7022 90.142 72.7469 95.7626C68.8957 101.279 63.7435 105.703 57.2902 109.034C50.8368 112.26 43.4988 113.874 35.276 113.874Z" fill="url(#paint0_linear_177_8774)"/>
</g>
<defs>
<filter id="filter0_d_177_8774" x="0.303101" y="0.836182" width="85.2463" height="117.037" filterUnits="userSpaceOnUse" color-interpolation-filters="sRGB">
<feFlood flood-opacity="0" result="BackgroundImageFix"/>
<feColorMatrix in="SourceAlpha" type="matrix" values="0 0 0 0 0 0 0 0 0 0 0 0 0 0 0 0 0 0 127 0" result="hardAlpha"/>
<feOffset dy="4"/>
<feComposite in2="hardAlpha" operator="out"/>
<feColorMatrix type="matrix" values="0 0 0 0 0.396271 0 0 0 0 0.33108 0 0 0 0 0.174623 0 0 0 1 0"/>
<feBlend mode="normal" in2="BackgroundImageFix" result="effect1_dropShadow_177_8774"/>
<feBlend mode="normal" in="SourceGraphic" in2="effect1_dropShadow_177_8774" result="shape"/>
</filter>
<linearGradient id="paint0_linear_177_8774" x1="42.5" y1="-20" x2="42.5" y2="138" gradientUnits="userSpaceOnUse">
<stop stop-color="#F1D392"/>
<stop offset="1" stop-color="#DBBB61"/>
</linearGradient>
</defs>
</svg>
