<svg width="390" height="844" viewBox="0 0 390 844" fill="none" xmlns="http://www.w3.org/2000/svg">
<g clip-path="url(#clip0_36_1455)">
<rect width="390" height="844" fill="#181A27"/>
<path d="M-0.929321 74.653C-11.3069 48.5405 -16.6659 20.5594 -16.7032 -7.70335H37.9113C37.9485 13.0776 41.8935 33.6507 49.5246 52.8523C57.1919 72.1452 68.4305 89.6759 82.599 104.443C96.7676 119.211 113.589 130.925 132.103 138.918C150.617 146.911 170.46 151.025 190.5 151.025C210.54 151.025 230.384 146.911 248.897 138.918C267.411 130.925 284.232 119.211 298.401 104.443C312.57 89.6759 323.808 72.1451 331.475 52.8522C339.107 33.6507 343.052 13.0776 343.089 -7.70337H397.703C397.666 20.5594 392.307 48.5405 381.929 74.653C371.515 100.857 356.252 124.666 337.011 144.72C317.769 164.774 294.927 180.682 269.789 191.534C244.629 202.396 222.396 209.703 195.206 209.703C168.003 209.703 136.354 202.389 111.211 191.534C86.0726 180.682 63.2306 164.774 43.9894 144.72C24.7482 124.666 9.48456 100.857 -0.929321 74.653Z" fill="#0E101F" stroke="url(#paint0_linear_36_1455)" stroke-width="0.593264"/>
<g filter="url(#filter0_f_36_1455)">
<ellipse cx="197.5" cy="75.1978" rx="89.5" ry="68.1978" fill="url(#paint1_linear_36_1455)" fill-opacity="0.6"/>
</g>
<path fill-rule="evenodd" clip-rule="evenodd" d="M161.495 295.646C161.273 295.646 161.061 295.694 160.868 295.782C161.049 295.496 161.156 295.149 161.156 294.776C161.156 293.795 160.425 293 159.525 293C158.624 293 157.893 293.795 157.893 294.776C157.893 295.131 157.99 295.462 158.155 295.74C157.991 295.679 157.815 295.646 157.631 295.646C156.73 295.646 156 296.441 156 297.421C156 298.402 156.73 299.197 157.631 299.197C157.835 299.197 158.029 299.156 158.209 299.082C158.209 299.082 158.968 298.859 159.467 297.87V298.466C159.467 298.466 159.211 300.342 157.407 300.548H157.119V300.84H162.032V300.548H161.744C159.94 300.342 159.684 298.466 159.684 298.466V297.911C159.777 298.133 160.291 299.223 161.446 299.196C161.462 299.196 161.479 299.197 161.495 299.197C162.396 299.197 163.126 298.402 163.126 297.421C163.126 296.441 162.396 295.646 161.495 295.646Z" fill="#1A1919"/>
</g>
<defs>
<filter id="filter0_f_36_1455" x="15.4455" y="-85.5545" width="364.109" height="321.505" filterUnits="userSpaceOnUse" color-interpolation-filters="sRGB">
<feFlood flood-opacity="0" result="BackgroundImageFix"/>
<feBlend mode="normal" in="SourceGraphic" in2="BackgroundImageFix" result="shape"/>
<feGaussianBlur stdDeviation="46.2772" result="effect1_foregroundBlur_36_1455"/>
</filter>
<linearGradient id="paint0_linear_36_1455" x1="190.5" y1="-8" x2="190.5" y2="210" gradientUnits="userSpaceOnUse">
<stop stop-color="#1A1C28"/>
<stop offset="1" stop-color="#90805C"/>
</linearGradient>
<linearGradient id="paint1_linear_36_1455" x1="197.5" y1="7" x2="197.5" y2="143.396" gradientUnits="userSpaceOnUse">
<stop stop-color="#FEF5AF" stop-opacity="0.3"/>
<stop offset="1" stop-color="#1B1D28"/>
</linearGradient>
<clipPath id="clip0_36_1455">
<rect width="390" height="844" fill="white"/>
</clipPath>
</defs>
</svg>
