<svg width="58" height="66" viewBox="0 0 58 66" fill="none" xmlns="http://www.w3.org/2000/svg">
<path d="M29.645 44.607C33.5161 46.0833 36.7229 45.7597 38.8239 44.0505L42.4928 41.0901C44.5572 39.2661 41.1866 39.6505 40.4374 35.3975C38.959 26.8653 31.2813 17.4596 23.3745 14.4443C19.5034 12.968 20.7264 9.25411 18.6274 11.0201L14.7386 14.3897C12.7163 16.2186 11.8674 19.4588 12.5918 23.6575C14.1054 32.2143 21.7382 41.5917 29.645 44.607Z" fill="url(#paint0_linear_46_1391)"/>
<path d="M39.0383 18.7603C32.4619 10.5131 23.4499 6.98435 18.9093 10.8787C14.3688 14.7731 16.0192 24.6158 22.5956 32.863C29.172 41.1103 38.184 44.639 42.7246 40.7447C47.2651 36.8503 45.6147 27.0076 39.0383 18.7603Z" fill="url(#paint1_linear_46_1391)"/>
<path d="M36.8989 20.5948C32.0372 14.4978 25.373 11.8906 22.0141 14.7714C18.6553 17.6523 19.8736 24.9304 24.7353 31.0274C29.5971 37.1244 36.2612 39.7316 39.6201 36.8507C42.979 33.9698 41.7607 26.6918 36.8989 20.5948Z" fill="url(#paint2_linear_46_1391)"/>
<path style="mix-blend-mode:multiply" d="M40.2976 30.3946C39.2146 24.0888 33.5318 17.1382 27.6875 14.9096C25.9863 14.1639 24.0956 14.036 22.3307 14.5474C23.907 13.4905 26.1536 13.3388 28.7951 14.3461C34.6006 16.5599 40.2835 23.5105 41.4052 29.831C42.171 33.9096 40.7986 36.7024 38.2214 37.5794C40.0322 36.3541 40.9144 33.8338 40.2976 30.3946Z" fill="url(#paint3_linear_46_1391)"/>
<g style="mix-blend-mode:multiply">
<g style="mix-blend-mode:multiply">
<path d="M12.7485 24.1427L12.6699 23.7972L12.6234 23.4865L16.5264 20.1615L16.5716 20.5393L16.632 20.8102L12.7485 24.1427Z" fill="#FDD65B"/>
</g>
<g style="mix-blend-mode:multiply">
<path d="M12.6481 18.8208L16.5792 15.4577C16.4891 15.7162 16.4931 16.022 16.4581 16.313L12.5269 19.6761C12.5532 19.3888 12.5936 19.1034 12.6481 18.8208V18.8208Z" fill="#FDD65B"/>
</g>
<g style="mix-blend-mode:multiply">
<path d="M13.5713 27.3146L17.4592 23.9968L17.6711 24.5622L13.7929 27.8838L13.5713 27.3146Z" fill="#FDD65B"/>
</g>
<g style="mix-blend-mode:multiply">
<path d="M16.8029 33.7952L20.6623 30.4908L20.9936 30.9668L17.1341 34.2711L16.8029 33.7952Z" fill="#FDD65B"/>
</g>
<g style="mix-blend-mode:multiply">
<path d="M15.0136 30.7051L18.8871 27.3942L19.1684 27.9186L15.2949 31.2296L15.0136 30.7051Z" fill="#FDD65B"/>
</g>
<g style="mix-blend-mode:multiply">
<path d="M18.8988 36.6358L22.7574 33.3321L23.1352 33.7695L19.2766 37.0733L18.8988 36.6358Z" fill="#FDD65B"/>
</g>
<g style="mix-blend-mode:multiply">
<path d="M34.0564 45.5131L37.8483 42.2663C38.1554 42.2716 38.4563 42.2633 38.7509 42.2413L34.9722 45.482C34.6915 45.4643 34.367 45.5085 34.0564 45.5131Z" fill="#FDD65B"/>
</g>
<g style="mix-blend-mode:multiply">
<path d="M33.6927 41.5034L34.3156 41.7423L30.4956 44.9772C30.2913 44.8988 30.0869 44.8205 29.8728 44.7383L33.6927 41.5034Z" fill="#FDD65B"/>
</g>
<g style="mix-blend-mode:multiply">
<path d="M27.0984 43.5537C26.9134 43.4828 26.7187 43.4081 26.5579 43.2677L30.3969 39.982C30.5916 40.0566 30.7766 40.1276 30.9374 40.268L27.0984 43.5537Z" fill="#FDD65B"/>
</g>
<g style="mix-blend-mode:multiply">
<path d="M27.5719 38.0582C27.7264 38.185 27.8879 38.2919 28.0362 38.4051L24.1924 41.7015C24.0344 41.5847 23.873 41.4777 23.7184 41.351L27.5719 38.0582Z" fill="#FDD65B"/>
</g>
<g style="mix-blend-mode:multiply">
<path d="M21.6338 39.5478C21.4924 39.4148 21.3476 39.2917 21.2096 39.1488L25.064 35.8555C25.2019 35.9984 25.3468 36.1214 25.4784 36.2507L21.6338 39.5478Z" fill="#FDD65B"/>
</g>
</g>
<path style="mix-blend-mode:color-dodge" d="M12.918 29.94C15.988 35.7931 21.0812 39.1284 24.3057 37.3833C27.5302 35.6382 27.6445 29.473 24.5682 23.6062C21.492 17.7395 16.4085 14.4078 13.155 16.1419C9.90143 17.8759 9.84177 24.0732 12.918 29.94Z" fill="url(#paint4_radial_46_1391)"/>
<path style="mix-blend-mode:multiply" d="M12.5826 23.7009C11.8584 19.5069 12.7064 16.2705 14.7272 14.4438L15.2373 13.989C13.4887 15.8523 12.8134 18.9083 13.5018 22.7976C15.0152 31.3446 22.65 40.7253 30.552 43.7377C34.4208 45.2126 37.6254 44.8895 39.725 43.1824L38.7995 44.0721C36.7097 45.7829 33.4857 46.0986 29.6266 44.6274C21.7246 41.615 14.096 32.2479 12.5826 23.7009Z" fill="url(#paint5_linear_46_1391)"/>
<path style="mix-blend-mode:color-dodge" d="M15.9409 20.8257C15.189 16.7124 16.0657 13.6451 18.0052 11.7997C16.6819 13.701 16.1942 16.5025 16.8102 19.971C18.2945 28.5035 25.9218 37.8668 33.8222 40.8782C37.9416 42.4484 41.3079 41.9748 43.3905 39.9713C41.4542 42.7466 37.6816 43.5353 32.982 41.744C25.0816 38.7326 17.4543 29.3692 15.9409 20.8257Z" fill="url(#paint6_radial_46_1391)"/>
<path style="mix-blend-mode:multiply" d="M27.6054 21.9375C27.6054 21.9375 27.5709 22.0359 27.4585 22.1382C27.3883 22.3047 27.3284 22.4756 27.2791 22.65C27.2147 22.8798 27.1622 23.113 27.1218 23.3488C27.0797 23.627 27.0651 23.9093 27.0783 24.1913L29.1551 24.982L29.1813 24.5011C29.2174 24.0487 29.2798 23.5993 29.3683 23.1553C29.4311 22.804 29.5834 22.4772 29.8098 22.2078C30.0094 21.9829 30.2884 21.8487 30.5867 21.8341C31.0086 21.8075 31.432 21.8845 31.8218 22.0589C32.3773 22.2698 32.8963 22.5729 33.3576 22.956C33.7989 23.3199 34.1879 23.746 34.5126 24.2213C34.8398 24.6848 35.1126 25.1857 35.3254 25.7134C35.5551 26.2273 35.7343 26.7627 35.8602 27.3116L37.6375 27.9883L37.841 29.1257L36.0154 28.4306C36.0846 29.126 36.0745 29.826 35.9851 30.5166C35.9167 31.1021 35.7374 31.6667 35.4573 32.1788L33.0686 30.1537C33.1471 30.0789 33.2116 29.9901 33.2591 29.8915C33.3558 29.6988 33.4277 29.4936 33.4729 29.2812C33.5568 29.0022 33.6202 28.7168 33.6627 28.4274C33.7208 28.0664 33.7393 27.6992 33.7178 27.3328L31.6894 26.5605L31.6162 27.269C31.5753 27.681 31.4918 28.0868 31.3672 28.4795C31.2911 28.7661 31.1398 29.0248 30.9297 29.2279C30.7342 29.401 30.4835 29.4955 30.2232 29.4944C29.8737 29.4926 29.5269 29.4212 29.2021 29.2842C28.6768 29.0861 28.1843 28.8044 27.7428 28.4497C27.2963 28.1034 26.8926 27.7023 26.5409 27.2557C26.1858 26.8068 25.8834 26.3171 25.6398 25.797C25.3865 25.2847 25.1898 24.7457 25.0533 24.1902L23.5078 23.6018L23.3042 22.4644L24.8498 23.0528C24.7798 22.4403 24.808 21.8217 24.9332 21.2214C25.0326 20.7526 25.1747 20.2949 25.3575 19.8544L27.6054 21.9375ZM28.281 26.4455C28.5321 26.5411 28.7239 26.5249 28.8309 26.3759C28.9755 26.1682 29.0614 25.9231 29.0792 25.6672L27.1956 24.9501C27.2396 25.2712 27.3622 25.5769 27.552 25.8384C27.7418 26.1 27.9926 26.3088 28.281 26.4455V26.4455ZM32.5635 25.097C32.3027 24.9977 32.1171 25.0275 32.0095 25.2096C31.8752 25.4424 31.7851 25.6995 31.7438 25.9676L33.5695 26.6627C33.4184 25.813 33.0755 25.2919 32.5635 25.097V25.097Z" fill="url(#paint7_linear_46_1391)"/>
<path d="M28.1445 21.3107C28.0818 21.3651 28.0345 21.4356 28.0072 21.5151C27.9316 21.6793 27.8715 21.8507 27.8278 22.027C27.762 22.257 27.7126 22.4918 27.6801 22.7296C27.6343 23.0062 27.6165 23.2873 27.627 23.5685L29.7038 24.3592L29.7301 23.8783C29.7694 23.4269 29.8351 22.9787 29.9267 22.536C29.9922 22.1856 30.1442 21.8594 30.3683 21.5884C30.5705 21.367 30.848 21.2335 31.1452 21.2147C31.5668 21.1945 31.9888 21.2713 32.3803 21.4394C32.9362 21.6495 33.4553 21.9527 33.9162 22.3366C34.3575 22.7005 34.7465 23.1267 35.0712 23.6021C35.4012 24.0638 35.6742 24.5651 35.884 25.0943C36.1094 25.6099 36.2884 26.145 36.4188 26.6927L38.1865 27.3657L38.3728 28.5525L36.5374 27.8537C36.6143 28.5454 36.6052 29.2431 36.5105 29.93C36.441 30.5189 36.2606 31.0868 35.9793 31.6023L33.5905 29.577C33.669 29.5022 33.7335 29.4134 33.781 29.3148C33.8766 29.1253 33.9474 28.9234 33.9914 28.7142C34.0771 28.4321 34.1417 28.1433 34.1846 27.8505C34.2451 27.4897 34.2636 27.1222 34.2398 26.7557L32.2112 25.9834L32.1416 26.6821C32.1029 27.0984 32.0215 27.5087 31.8987 27.9063C31.8147 28.1868 31.662 28.4397 31.455 28.6412C31.2626 28.8195 31.0099 28.9149 30.7485 28.9078C30.3989 28.9065 30.052 28.835 29.7273 28.6975C29.1985 28.4989 28.7027 28.216 28.2583 27.8593C27.8134 27.5283 27.4074 27.1453 27.0488 26.7181C26.6937 26.2691 26.3913 25.7794 26.1477 25.2592C25.9142 24.753 25.7326 24.2239 25.606 23.6805L24.0605 23.0921L23.8742 21.9053L25.4197 22.4938C25.3498 21.8812 25.378 21.2625 25.5032 20.6622C25.6193 20.1979 25.7775 19.7464 25.9758 19.3135L28.1445 21.3107ZM28.82 25.8192C29.0808 25.9185 29.2629 25.8986 29.3761 25.7631C29.5199 25.5549 29.6057 25.3101 29.6245 25.0543L27.7312 24.3334C27.777 24.6533 27.9008 24.9572 28.0912 25.217C28.2815 25.4767 28.5323 25.6839 28.82 25.8192V25.8192ZM33.1027 24.4705C32.8419 24.3712 32.6563 24.401 32.5486 24.5832C32.4144 24.8159 32.3243 25.073 32.283 25.3412L34.1087 26.0363C33.9576 25.1866 33.6147 24.6655 33.1027 24.4705Z" fill="url(#paint8_linear_46_1391)"/>
<g style="mix-blend-mode:color-dodge">
<path style="mix-blend-mode:color-dodge" d="M28.1373 21.3125C28.0747 21.3666 28.0275 21.4368 28.0004 21.5161C27.9251 21.6798 27.8654 21.8507 27.822 22.0265C27.7566 22.2558 27.7077 22.49 27.6757 22.7272C27.6304 23.0031 27.6131 23.2836 27.6241 23.5642L29.702 24.3587L29.7273 23.8788C29.7659 23.4284 29.8307 22.9813 29.9214 22.5399C29.9863 22.1904 30.1376 21.8653 30.3612 21.5954C30.5629 21.375 30.8402 21.2425 31.1372 21.2245C31.5587 21.2055 31.9807 21.2832 32.3725 21.452C32.9287 21.663 33.4483 21.967 33.9098 22.3513C34.3517 22.7156 34.7414 23.1419 35.067 23.6171C35.3977 24.0787 35.6717 24.5796 35.8824 25.1083C36.1087 25.6234 36.2886 26.1578 36.42 26.7047L38.1887 27.3809L38.3771 28.5656L36.5408 27.8635C36.6189 28.554 36.6112 29.2502 36.5178 29.9354C36.4494 30.5229 36.2701 31.0891 35.9898 31.6028L33.5977 29.5756C33.676 29.5011 33.7403 29.4126 33.7876 29.3144C33.8829 29.1255 33.9533 28.9242 33.9969 28.7157C34.082 28.4343 34.1461 28.1463 34.1884 27.8543C34.2482 27.4944 34.2661 27.1277 34.2416 26.7619L32.212 25.9859L32.1436 26.683C32.1058 27.0983 32.0252 27.5076 31.9031 27.904C31.8196 28.1837 31.6674 28.4357 31.4609 28.6362C31.2688 28.8136 31.0163 28.9081 30.755 28.9004C30.4055 28.8981 30.0585 28.826 29.7336 28.6879C29.2046 28.4883 28.7083 28.2047 28.2633 27.8476C27.8179 27.5162 27.4112 27.1329 27.0519 26.7057C26.6961 26.2567 26.3927 25.7673 26.1482 25.2475C25.9138 24.7417 25.7313 24.2133 25.6037 23.6707L24.0574 23.0795L23.8689 21.8948L25.4153 22.486C25.3442 21.8745 25.3712 21.2572 25.4953 20.6585C25.6105 20.1955 25.7678 19.7453 25.9653 19.3138L28.1373 21.3125ZM28.8211 25.8132C29.082 25.913 29.2641 25.8936 29.377 25.7587C29.5203 25.5514 29.6057 25.3072 29.624 25.0521L27.7297 24.3278C27.7761 24.6471 27.9005 24.9507 28.0913 25.2104C28.2821 25.4701 28.5331 25.6775 28.8211 25.8132V25.8132ZM33.1004 24.4786C32.8395 24.3788 32.654 24.408 32.5467 24.5895C32.4129 24.8214 32.3233 25.0778 32.2825 25.3453L34.1092 26.0437C33.9565 25.1953 33.6127 24.6744 33.1004 24.4786Z" fill="url(#paint9_radial_46_1391)"/>
</g>
<path d="M25.6452 58.607C29.5164 60.0833 32.7231 59.7597 34.8242 58.0505L38.493 55.0901C40.5575 53.2661 37.1869 53.6506 36.4376 49.3975C34.9592 40.8654 27.2816 31.4597 19.3747 28.4443C15.5036 26.968 16.7267 23.2542 14.6277 25.0202L10.7388 28.3898C8.71651 30.2186 7.86767 33.4588 8.59203 37.6576C10.1057 46.2143 17.7384 55.5917 25.6452 58.607Z" fill="url(#paint10_linear_46_1391)"/>
<path d="M35.0383 32.7603C28.4619 24.513 19.4499 20.9843 14.9093 24.8787C10.3688 28.773 12.0192 38.6157 18.5956 46.863C25.172 55.1103 34.184 58.639 38.7245 54.7447C43.2651 50.8503 41.6147 41.0076 35.0383 32.7603Z" fill="url(#paint11_linear_46_1391)"/>
<path d="M32.8989 34.5948C28.0372 28.4978 21.373 25.8906 18.0141 28.7715C14.6552 31.6524 15.8736 38.9304 20.7353 45.0274C25.5971 51.1245 32.2612 53.7317 35.6201 50.8508C38.979 47.9699 37.7607 40.6919 32.8989 34.5948Z" fill="url(#paint12_linear_46_1391)"/>
<path style="mix-blend-mode:multiply" d="M36.2979 44.3941C35.2149 38.0884 29.532 31.1377 23.6878 28.9092C21.9866 28.1634 20.0958 28.0356 18.3309 28.547C19.9073 27.49 22.1538 27.3384 24.7953 28.3457C30.6008 30.5594 36.2837 37.5101 37.4054 43.8306C38.1713 47.9092 36.7989 50.702 34.2217 51.579C36.0324 50.3537 36.9146 47.8334 36.2979 44.3941Z" fill="url(#paint13_linear_46_1391)"/>
<g style="mix-blend-mode:multiply">
<g style="mix-blend-mode:multiply">
<path d="M8.74875 38.1422L8.67015 37.7967L8.62365 37.486L12.5266 34.1611L12.5718 34.5389L12.6322 34.8098L8.74875 38.1422Z" fill="#FDD65B"/>
</g>
<g style="mix-blend-mode:multiply">
<path d="M8.64858 32.8204L12.5797 29.4572C12.4895 29.7157 12.4936 30.0216 12.4585 30.3125L8.52741 33.6757C8.55368 33.3884 8.59412 33.1029 8.64858 32.8204V32.8204Z" fill="#FDD65B"/>
</g>
<g style="mix-blend-mode:multiply">
<path d="M9.57205 41.3142L13.4599 37.9964L13.6718 38.5619L9.79367 41.8834L9.57205 41.3142Z" fill="#FDD65B"/>
</g>
<g style="mix-blend-mode:multiply">
<path d="M12.8034 47.7947L16.6628 44.4905L16.994 44.9665L13.1346 48.2707L12.8034 47.7947Z" fill="#FDD65B"/>
</g>
<g style="mix-blend-mode:multiply">
<path d="M11.0141 44.7047L14.8876 41.3937L15.1689 41.9181L11.2954 45.2291L11.0141 44.7047Z" fill="#FDD65B"/>
</g>
<g style="mix-blend-mode:multiply">
<path d="M14.8993 50.6354L18.7579 47.3318L19.1356 47.7692L15.277 51.0729L14.8993 50.6354Z" fill="#FDD65B"/>
</g>
<g style="mix-blend-mode:multiply">
<path d="M30.0569 59.5127L33.8488 56.2658C34.1559 56.2712 34.4568 56.2628 34.7514 56.2409L30.9727 59.4816C30.692 59.4638 30.3675 59.5081 30.0569 59.5127Z" fill="#FDD65B"/>
</g>
<g style="mix-blend-mode:multiply">
<path d="M29.6932 55.5031L30.316 55.742L26.4961 58.9768C26.2917 58.8984 26.0874 58.82 25.8733 58.7379L29.6932 55.5031Z" fill="#FDD65B"/>
</g>
<g style="mix-blend-mode:multiply">
<path d="M23.0991 57.5534C22.9141 57.4824 22.7194 57.4077 22.5586 57.2673L26.3976 53.9816C26.5923 54.0563 26.7773 54.1273 26.9381 54.2677L23.0991 57.5534Z" fill="#FDD65B"/>
</g>
<g style="mix-blend-mode:multiply">
<path d="M23.5726 52.0579C23.7271 52.1846 23.8886 52.2916 24.0369 52.4047L20.1932 55.7011C20.0352 55.5843 19.8737 55.4774 19.7191 55.3506L23.5726 52.0579Z" fill="#FDD65B"/>
</g>
<g style="mix-blend-mode:multiply">
<path d="M17.6343 53.5473C17.4929 53.4143 17.3481 53.2913 17.2101 53.1484L21.0645 49.855C21.2024 49.998 21.3473 50.121 21.4789 50.2503L17.6343 53.5473Z" fill="#FDD65B"/>
</g>
</g>
<path style="mix-blend-mode:color-dodge" d="M8.91802 43.94C11.988 49.7931 17.0812 53.1285 20.3057 51.3833C23.5302 49.6382 23.6445 43.473 20.5682 37.6062C17.492 31.7395 12.4085 28.4079 9.15497 30.1419C5.90143 31.8759 5.84177 38.0732 8.91802 43.94Z" fill="url(#paint14_radial_46_1391)"/>
<path style="mix-blend-mode:multiply" d="M8.58264 37.7014C7.85839 33.5075 8.70641 30.2711 10.7272 28.4444L11.2373 27.9896C9.48867 29.8529 8.81343 32.9089 9.50184 36.7981C11.0152 45.3452 18.65 54.7258 26.552 57.7382C30.4208 59.2131 33.6254 58.89 35.725 57.183L34.7995 58.0727C32.7097 59.7834 29.4857 60.0992 25.6266 58.628C17.7246 55.6156 10.096 46.2485 8.58264 37.7014Z" fill="url(#paint15_linear_46_1391)"/>
<path style="mix-blend-mode:color-dodge" d="M11.9409 34.8257C11.189 30.7124 12.0657 27.645 14.0053 25.7996C12.6819 27.7009 12.1942 30.5025 12.8102 33.9709C14.2945 42.5034 21.9218 51.8669 29.8222 54.8782C33.9416 56.4484 37.3079 55.9748 39.3905 53.9713C37.4542 56.7467 33.6816 57.5353 28.982 55.744C21.0816 52.7326 13.4543 43.3692 11.9409 34.8257Z" fill="url(#paint16_radial_46_1391)"/>
<path style="mix-blend-mode:multiply" d="M23.6057 35.9375C23.6057 35.9375 23.5712 36.036 23.4587 36.1382C23.3886 36.3047 23.3287 36.4757 23.2793 36.6501C23.2149 36.8798 23.1624 37.1131 23.122 37.3489C23.08 37.6271 23.0654 37.9094 23.0786 38.1914L25.1554 38.9821L25.1816 38.5011C25.2176 38.0488 25.2801 37.5994 25.3685 37.1554C25.4313 36.8041 25.5836 36.4772 25.8101 36.2078C26.0097 35.9829 26.2887 35.8487 26.587 35.8342C27.0088 35.8075 27.4322 35.8846 27.822 36.0589C28.3775 36.2698 28.8965 36.5729 29.3579 36.956C29.7992 37.3199 30.1882 37.746 30.5129 38.2214C30.84 38.6849 31.1129 39.1858 31.3257 39.7135C31.5554 40.2273 31.7345 40.7627 31.8604 41.3117L33.6377 41.9883L33.8413 43.1257L32.0157 42.4307C32.0849 43.126 32.0747 43.8261 31.9853 44.5167C31.9169 45.1022 31.7376 45.6668 31.4575 46.1789L29.0689 44.1538C29.1473 44.079 29.2118 43.9902 29.2593 43.8916C29.3561 43.6988 29.428 43.4937 29.4732 43.2813C29.5571 43.0022 29.6205 42.7168 29.6629 42.4275C29.721 42.0664 29.7395 41.6993 29.7181 41.3328L27.6896 40.5605L27.6165 41.2691C27.5755 41.6811 27.4921 42.0868 27.3674 42.4796C27.2913 42.7661 27.1401 43.0249 26.93 43.2279C26.7345 43.401 26.4838 43.4956 26.2235 43.4945C25.874 43.4926 25.5272 43.4212 25.2023 43.2842C24.677 43.0862 24.1845 42.8045 23.7431 42.4497C23.2965 42.1034 22.8928 41.7024 22.5411 41.2558C22.1861 40.8069 21.8836 40.3172 21.64 39.797C21.3868 39.2847 21.1901 38.7458 21.0536 38.1903L19.508 37.6018L19.3045 36.4644L20.85 37.0529C20.78 36.4403 20.8082 35.8217 20.9335 35.2214C21.0329 34.7526 21.1749 34.295 21.3578 33.8545L23.6057 35.9375ZM24.2812 40.4455C24.5324 40.5411 24.7242 40.5249 24.8311 40.376C24.9758 40.1683 25.0617 39.9232 25.0795 39.6672L23.1959 38.9501C23.2398 39.2713 23.3624 39.5769 23.5522 39.8385C23.7421 40.1 23.9929 40.3089 24.2812 40.4455V40.4455ZM28.5638 39.0971C28.3029 38.9978 28.1173 39.0275 28.0097 39.2097C27.8754 39.4424 27.7853 39.6995 27.7441 39.9677L29.5697 40.6627C29.4186 39.813 29.0757 39.292 28.5638 39.0971V39.0971Z" fill="url(#paint17_linear_46_1391)"/>
<path d="M24.1445 35.3113C24.0818 35.3657 24.0345 35.4362 24.0072 35.5157C23.9316 35.6799 23.8715 35.8513 23.8278 36.0276C23.762 36.2576 23.7126 36.4924 23.6801 36.7301C23.6343 37.0067 23.6165 37.2879 23.627 37.5691L25.7038 38.3598L25.7301 37.8788C25.7694 37.4274 25.8351 36.9792 25.9267 36.5366C25.9922 36.1862 26.1442 35.86 26.3683 35.589C26.5704 35.3676 26.848 35.2341 27.1452 35.2153C27.5668 35.1951 27.9888 35.2719 28.3803 35.44C28.9362 35.6501 29.4553 35.9533 29.9162 36.3372C30.3575 36.7011 30.7465 37.1273 31.0712 37.6027C31.4012 38.0644 31.6742 38.5657 31.884 39.0949C32.1094 39.6105 32.2884 40.1455 32.4188 40.6933L34.1865 41.3663L34.3728 42.553L32.5374 41.8542C32.6143 42.546 32.6052 43.2437 32.5105 43.9305C32.441 44.5195 32.2606 45.0873 31.9793 45.6028L29.5905 43.5775C29.669 43.5027 29.7335 43.4139 29.781 43.3153C29.8766 43.1258 29.9474 42.9239 29.9914 42.7148C30.0771 42.4326 30.1417 42.1439 30.1846 41.8511C30.2451 41.4903 30.2636 41.1228 30.2398 40.7563L28.2112 39.9839L28.1416 40.6827C28.1029 41.099 28.0215 41.5093 27.8987 41.9069C27.8147 42.1874 27.662 42.4403 27.455 42.6417C27.2626 42.8201 27.0099 42.9154 26.7485 42.9083C26.3989 42.907 26.052 42.8356 25.7273 42.698C25.1985 42.4995 24.7027 42.2165 24.2583 41.8598C23.8134 41.5289 23.4074 41.1459 23.0488 40.7187C22.6937 40.2697 22.3912 39.78 22.1477 39.2598C21.9142 38.7535 21.7326 38.2244 21.606 37.6811L20.0605 37.0926L19.8742 35.9059L21.4197 36.4944C21.3498 35.8818 21.378 35.2631 21.5032 34.6628C21.6193 34.1985 21.7775 33.747 21.9758 33.3141L24.1445 35.3113ZM24.82 39.8197C25.0808 39.919 25.2629 39.8991 25.3761 39.7637C25.5199 39.5555 25.6057 39.3106 25.6245 39.0549L23.7312 38.334C23.777 38.6538 23.9008 38.9578 24.0912 39.2175C24.2815 39.4773 24.5322 39.6844 24.82 39.8197V39.8197ZM29.1027 38.4711C28.8419 38.3718 28.6563 38.4016 28.5486 38.5838C28.4144 38.8165 28.3242 39.0736 28.283 39.3418L30.1087 40.0369C29.9576 39.1871 29.6147 38.666 29.1027 38.4711Z" fill="url(#paint18_linear_46_1391)"/>
<g style="mix-blend-mode:color-dodge">
<path style="mix-blend-mode:color-dodge" d="M24.1375 35.3125C24.075 35.3666 24.0278 35.4368 24.0006 35.5161C23.9253 35.6798 23.8656 35.8507 23.8222 36.0265C23.7569 36.2558 23.7079 36.49 23.6759 36.7272C23.6306 37.0031 23.6134 37.2836 23.6243 37.5642L25.7023 38.3587L25.7276 37.8788C25.7661 37.4284 25.8309 36.9813 25.9217 36.5399C25.9865 36.1904 26.1379 35.8653 26.3614 35.5954C26.5631 35.375 26.8404 35.2425 27.1375 35.2245C27.5589 35.2055 27.981 35.2832 28.3727 35.452C28.929 35.663 29.4486 35.967 29.91 36.3513C30.352 36.7156 30.7417 37.1419 31.0672 37.6171C31.398 38.0787 31.6719 38.5797 31.8826 39.1083C32.1089 39.6234 32.2889 40.1578 32.4203 40.7047L34.1889 41.3809L34.3774 42.5656L32.5411 41.8635C32.6192 42.554 32.6114 43.2502 32.5181 43.9354C32.4496 44.5229 32.2703 45.0891 31.99 45.6028L29.598 43.5756C29.6762 43.5011 29.7406 43.4126 29.7879 43.3144C29.8832 43.1255 29.9535 42.9242 29.9971 42.7157C30.0823 42.4343 30.1463 42.1463 30.1887 41.8543C30.2485 41.4944 30.2663 41.1277 30.2418 40.7619L28.2122 39.9859L28.1439 40.683C28.106 41.0983 28.0254 41.5076 27.9033 41.904C27.8199 42.1837 27.6677 42.4357 27.4611 42.6362C27.269 42.8136 27.0166 42.9081 26.7552 42.9004C26.4057 42.8981 26.0587 42.826 25.7338 42.6879C25.2048 42.4883 24.7085 42.2047 24.2636 41.8476C23.8181 41.5162 23.4115 41.1329 23.0521 40.7057C22.6963 40.2567 22.393 39.7673 22.1485 39.2475C21.9141 38.7417 21.7316 38.2133 21.604 37.6707L20.0576 37.0795L19.8691 35.8948L21.4155 36.486C21.3444 35.8746 21.3714 35.2572 21.4956 34.6585C21.6107 34.1955 21.7681 33.7453 21.9656 33.3138L24.1375 35.3125ZM24.8213 39.8132C25.0823 39.913 25.2643 39.8936 25.3772 39.7587C25.5206 39.5514 25.6059 39.3072 25.6242 39.0521L23.7299 38.3278C23.7763 38.6471 23.9007 38.9507 24.0915 39.2104C24.2823 39.4701 24.5334 39.6775 24.8213 39.8132V39.8132ZM29.1007 38.4786C28.8397 38.3788 28.6542 38.408 28.5469 38.5895C28.4131 38.8214 28.3235 39.0778 28.2828 39.3453L30.1094 40.0437C29.9567 39.1953 29.6129 38.6744 29.1007 38.4786Z" fill="url(#paint19_radial_46_1391)"/>
</g>
<defs>
<linearGradient id="paint0_linear_46_1391" x1="14.2377" y1="15.1626" x2="39.6576" y2="43.4949" gradientUnits="userSpaceOnUse">
<stop stop-color="#FFBB96"/>
<stop offset="0.23" stop-color="#FFFBC9"/>
<stop offset="0.54" stop-color="#F9B673"/>
<stop offset="0.64" stop-color="#F9B876"/>
<stop offset="0.72" stop-color="#FABE81"/>
<stop offset="0.81" stop-color="#FCC993"/>
<stop offset="0.86" stop-color="#FED2A3"/>
<stop offset="0.97" stop-color="#FFC28C"/>
</linearGradient>
<linearGradient id="paint1_linear_46_1391" x1="31.4451" y1="-17.8412" x2="4.33739" y2="16.7944" gradientUnits="userSpaceOnUse">
<stop offset="0.04" stop-color="#FFBA78"/>
<stop offset="0.4" stop-color="#FFC987"/>
<stop offset="1" stop-color="#FEECA8"/>
</linearGradient>
<linearGradient id="paint2_linear_46_1391" x1="476.663" y1="-14.2262" x2="-14.1445" y2="-984.9" gradientUnits="userSpaceOnUse">
<stop offset="0.04" stop-color="#FFBA78"/>
<stop offset="0.4" stop-color="#FFC987"/>
<stop offset="1" stop-color="#FEECA8"/>
</linearGradient>
<linearGradient id="paint3_linear_46_1391" x1="39098.4" y1="-109238" x2="38681.8" y2="-109458" gradientUnits="userSpaceOnUse">
<stop stop-color="#FFBB96"/>
<stop offset="0.23" stop-color="#FFFBC9"/>
<stop offset="0.54" stop-color="#F9B673"/>
<stop offset="0.64" stop-color="#F9B876"/>
<stop offset="0.72" stop-color="#FABE81"/>
<stop offset="0.81" stop-color="#FCC993"/>
<stop offset="0.86" stop-color="#FED2A3"/>
<stop offset="0.97" stop-color="#FFC28C"/>
</linearGradient>
<radialGradient id="paint4_radial_46_1391" cx="0" cy="0" r="1" gradientUnits="userSpaceOnUse" gradientTransform="translate(25.1408 61.315) rotate(151.014) scale(6.66144 11.9397)">
<stop stop-color="#F49587"/>
<stop offset="0.12" stop-color="#BD7368"/>
<stop offset="0.24" stop-color="#8B554D"/>
<stop offset="0.36" stop-color="#603B35"/>
<stop offset="0.48" stop-color="#3E2622"/>
<stop offset="0.61" stop-color="#231513"/>
<stop offset="0.74" stop-color="#0F0908"/>
<stop offset="0.86" stop-color="#040202"/>
<stop offset="1"/>
</radialGradient>
<linearGradient id="paint5_linear_46_1391" x1="49131.3" y1="-140311" x2="50152.9" y2="-140651" gradientUnits="userSpaceOnUse">
<stop stop-color="#FFBB96"/>
<stop offset="0.23" stop-color="#FFFBC9"/>
<stop offset="0.54" stop-color="#F9B673"/>
<stop offset="0.64" stop-color="#F9B876"/>
<stop offset="0.72" stop-color="#FABE81"/>
<stop offset="0.81" stop-color="#FCC993"/>
<stop offset="0.86" stop-color="#FED2A3"/>
<stop offset="0.97" stop-color="#FFC28C"/>
</linearGradient>
<radialGradient id="paint6_radial_46_1391" cx="0" cy="0" r="1" gradientUnits="userSpaceOnUse" gradientTransform="translate(21.8471 44.8349) rotate(109.297) scale(14.5974 14.4376)">
<stop stop-color="white"/>
<stop offset="1"/>
</radialGradient>
<linearGradient id="paint7_linear_46_1391" x1="213.765" y1="12.3974" x2="362.392" y2="-93.5302" gradientUnits="userSpaceOnUse">
<stop stop-color="#FFBB96"/>
<stop offset="0.23" stop-color="#FFFBC9"/>
<stop offset="0.54" stop-color="#F9B673"/>
<stop offset="0.64" stop-color="#F9B876"/>
<stop offset="0.72" stop-color="#FABE81"/>
<stop offset="0.81" stop-color="#FCC993"/>
<stop offset="0.86" stop-color="#FED2A3"/>
<stop offset="0.97" stop-color="#FFC28C"/>
</linearGradient>
<linearGradient id="paint8_linear_46_1391" x1="360.573" y1="34.9563" x2="383.502" y2="-25.2681" gradientUnits="userSpaceOnUse">
<stop offset="0.04" stop-color="#FFBA78"/>
<stop offset="0.4" stop-color="#FFC987"/>
<stop offset="1" stop-color="#FEECA8"/>
</linearGradient>
<radialGradient id="paint9_radial_46_1391" cx="0" cy="0" r="1" gradientUnits="userSpaceOnUse" gradientTransform="translate(31518.1 -268.894) rotate(-70.7328) scale(100.431 194.806)">
<stop stop-color="#F49587"/>
<stop offset="0.12" stop-color="#BD7368"/>
<stop offset="0.24" stop-color="#8B554D"/>
<stop offset="0.36" stop-color="#603B35"/>
<stop offset="0.48" stop-color="#3E2622"/>
<stop offset="0.61" stop-color="#231513"/>
<stop offset="0.74" stop-color="#0F0908"/>
<stop offset="0.86" stop-color="#040202"/>
<stop offset="1"/>
</radialGradient>
<linearGradient id="paint10_linear_46_1391" x1="10.2379" y1="29.1626" x2="35.6578" y2="57.495" gradientUnits="userSpaceOnUse">
<stop stop-color="#FFBB96"/>
<stop offset="0.23" stop-color="#FFFBC9"/>
<stop offset="0.54" stop-color="#F9B673"/>
<stop offset="0.64" stop-color="#F9B876"/>
<stop offset="0.72" stop-color="#FABE81"/>
<stop offset="0.81" stop-color="#FCC993"/>
<stop offset="0.86" stop-color="#FED2A3"/>
<stop offset="0.97" stop-color="#FFC28C"/>
</linearGradient>
<linearGradient id="paint11_linear_46_1391" x1="27.4451" y1="-3.84127" x2="0.337331" y2="30.7943" gradientUnits="userSpaceOnUse">
<stop offset="0.04" stop-color="#FFBA78"/>
<stop offset="0.4" stop-color="#FFC987"/>
<stop offset="1" stop-color="#FEECA8"/>
</linearGradient>
<linearGradient id="paint12_linear_46_1391" x1="472.663" y1="-0.225895" x2="-18.1443" y2="-970.9" gradientUnits="userSpaceOnUse">
<stop offset="0.04" stop-color="#FFBA78"/>
<stop offset="0.4" stop-color="#FFC987"/>
<stop offset="1" stop-color="#FEECA8"/>
</linearGradient>
<linearGradient id="paint13_linear_46_1391" x1="39094.4" y1="-109224" x2="38677.7" y2="-109443" gradientUnits="userSpaceOnUse">
<stop stop-color="#FFBB96"/>
<stop offset="0.23" stop-color="#FFFBC9"/>
<stop offset="0.54" stop-color="#F9B673"/>
<stop offset="0.64" stop-color="#F9B876"/>
<stop offset="0.72" stop-color="#FABE81"/>
<stop offset="0.81" stop-color="#FCC993"/>
<stop offset="0.86" stop-color="#FED2A3"/>
<stop offset="0.97" stop-color="#FFC28C"/>
</linearGradient>
<radialGradient id="paint14_radial_46_1391" cx="0" cy="0" r="1" gradientUnits="userSpaceOnUse" gradientTransform="translate(21.1409 75.315) rotate(151.014) scale(6.66144 11.9397)">
<stop stop-color="#F49587"/>
<stop offset="0.12" stop-color="#BD7368"/>
<stop offset="0.24" stop-color="#8B554D"/>
<stop offset="0.36" stop-color="#603B35"/>
<stop offset="0.48" stop-color="#3E2622"/>
<stop offset="0.61" stop-color="#231513"/>
<stop offset="0.74" stop-color="#0F0908"/>
<stop offset="0.86" stop-color="#040202"/>
<stop offset="1"/>
</radialGradient>
<linearGradient id="paint15_linear_46_1391" x1="49127.2" y1="-140297" x2="50148.8" y2="-140637" gradientUnits="userSpaceOnUse">
<stop stop-color="#FFBB96"/>
<stop offset="0.23" stop-color="#FFFBC9"/>
<stop offset="0.54" stop-color="#F9B673"/>
<stop offset="0.64" stop-color="#F9B876"/>
<stop offset="0.72" stop-color="#FABE81"/>
<stop offset="0.81" stop-color="#FCC993"/>
<stop offset="0.86" stop-color="#FED2A3"/>
<stop offset="0.97" stop-color="#FFC28C"/>
</linearGradient>
<radialGradient id="paint16_radial_46_1391" cx="0" cy="0" r="1" gradientUnits="userSpaceOnUse" gradientTransform="translate(17.8471 58.835) rotate(109.297) scale(14.5975 14.4376)">
<stop stop-color="white"/>
<stop offset="1"/>
</radialGradient>
<linearGradient id="paint17_linear_46_1391" x1="209.766" y1="26.3973" x2="358.393" y2="-79.5302" gradientUnits="userSpaceOnUse">
<stop stop-color="#FFBB96"/>
<stop offset="0.23" stop-color="#FFFBC9"/>
<stop offset="0.54" stop-color="#F9B673"/>
<stop offset="0.64" stop-color="#F9B876"/>
<stop offset="0.72" stop-color="#FABE81"/>
<stop offset="0.81" stop-color="#FCC993"/>
<stop offset="0.86" stop-color="#FED2A3"/>
<stop offset="0.97" stop-color="#FFC28C"/>
</linearGradient>
<linearGradient id="paint18_linear_46_1391" x1="356.573" y1="48.9572" x2="379.502" y2="-11.2668" gradientUnits="userSpaceOnUse">
<stop offset="0.04" stop-color="#FFBA78"/>
<stop offset="0.4" stop-color="#FFC987"/>
<stop offset="1" stop-color="#FEECA8"/>
</linearGradient>
<radialGradient id="paint19_radial_46_1391" cx="0" cy="0" r="1" gradientUnits="userSpaceOnUse" gradientTransform="translate(31514.1 -254.887) rotate(-70.7327) scale(100.431 194.806)">
<stop stop-color="#F49587"/>
<stop offset="0.12" stop-color="#BD7368"/>
<stop offset="0.24" stop-color="#8B554D"/>
<stop offset="0.36" stop-color="#603B35"/>
<stop offset="0.48" stop-color="#3E2622"/>
<stop offset="0.61" stop-color="#231513"/>
<stop offset="0.74" stop-color="#0F0908"/>
<stop offset="0.86" stop-color="#040202"/>
<stop offset="1"/>
</radialGradient>
</defs>
</svg>
